ply
format ascii 1.0
element vertex 64
property float32 x
property float32 y
property float32 z
property float nx
property float ny
property float nz
property uchar red
property uchar green
property uchar blue
property uchar alpha
element face 112
property list uchar int vertex_indices
end_header
-0.03 -0.03 -0.03 0.0 0.0 0.0 255 0 0 255
-0.03 -0.03 0.03 0.0 0.0 0.0 255 0 0 255
-0.03 0.03 -0.03 0.0 0.0 0.0 255 0 0 255
-0.03 0.03 0.03 0.0 0.0 0.0 255 0 0 255
0.03 -0.03 -0.03 0.0 0.0 0.0 255 0 0 255
0.03 -0.03 0.03 0.0 0.0 0.0 255 0 0 255
0.03 0.03 -0.03 0.0 0.0 0.0 255 0 0 255
0.03 0.03 0.03 0.0 0.0 0.0 255 0 0 255
-0.03 -0.03 0.97 0.0 0.0 0.0 255 0 0 255
-0.03 -0.03 1.03 0.0 0.0 0.0 255 0 0 255
-0.03 0.03 0.97 0.0 0.0 0.0 255 0 0 255
-0.03 0.03 1.03 0.0 0.0 0.0 255 0 0 255
0.03 -0.03 0.97 0.0 0.0 0.0 255 0 0 255
0.03 -0.03 1.03 0.0 0.0 0.0 255 0 0 255
0.03 0.03 0.97 0.0 0.0 0.0 255 0 0 255
0.03 0.03 1.03 0.0 0.0 0.0 255 0 0 255
-0.03 0.97 0.97 0.0 0.0 0.0 255 0 0 255
-0.03 0.97 1.03 0.0 0.0 0.0 255 0 0 255
-0.03 1.03 0.97 0.0 0.0 0.0 255 0 0 255
-0.03 1.03 1.03 0.0 0.0 0.0 255 0 0 255
0.03 0.97 0.97 0.0 0.0 0.0 255 0 0 255
0.03 0.97 1.03 0.0 0.0 0.0 255 0 0 255
0.03 1.03 0.97 0.0 0.0 0.0 255 0 0 255
0.03 1.03 1.03 0.0 0.0 0.0 255 0 0 255
-0.03 0.97 -0.03 0.0 0.0 0.0 255 0 0 255
-0.03 0.97 0.03 0.0 0.0 0.0 255 0 0 255
-0.03 1.03 -0.03 0.0 0.0 0.0 255 0 0 255
-0.03 1.03 0.03 0.0 0.0 0.0 255 0 0 255
0.03 0.97 -0.03 0.0 0.0 0.0 255 0 0 255
0.03 0.97 0.03 0.0 0.0 0.0 255 0 0 255
0.03 1.03 -0.03 0.0 0.0 0.0 255 0 0 255
0.03 1.03 0.03 0.0 0.0 0.0 255 0 0 255
0.97 -0.03 -0.03 0.0 0.0 0.0 255 0 0 255
0.97 -0.03 0.03 0.0 0.0 0.0 255 0 0 255
0.97 0.03 -0.03 0.0 0.0 0.0 255 0 0 255
0.97 0.03 0.03 0.0 0.0 0.0 255 0 0 255
1.03 -0.03 -0.03 0.0 0.0 0.0 255 0 0 255
1.03 -0.03 0.03 0.0 0.0 0.0 255 0 0 255
1.03 0.03 -0.03 0.0 0.0 0.0 255 0 0 255
1.03 0.03 0.03 0.0 0.0 0.0 255 0 0 255
0.97 -0.03 0.97 0.0 0.0 0.0 255 0 0 255
0.97 -0.03 1.03 0.0 0.0 0.0 255 0 0 255
0.97 0.03 0.97 0.0 0.0 0.0 255 0 0 255
0.97 0.03 1.03 0.0 0.0 0.0 255 0 0 255
1.03 -0.03 0.97 0.0 0.0 0.0 255 0 0 255
1.03 -0.03 1.03 0.0 0.0 0.0 255 0 0 255
1.03 0.03 0.97 0.0 0.0 0.0 255 0 0 255
1.03 0.03 1.03 0.0 0.0 0.0 255 0 0 255
0.97 0.97 0.97 0.0 0.0 0.0 255 0 0 255
0.97 0.97 1.03 0.0 0.0 0.0 255 0 0 255
0.97 1.03 0.97 0.0 0.0 0.0 255 0 0 255
0.97 1.03 1.03 0.0 0.0 0.0 255 0 0 255
1.03 0.97 0.97 0.0 0.0 0.0 255 0 0 255
1.03 0.97 1.03 0.0 0.0 0.0 255 0 0 255
1.03 1.03 0.97 0.0 0.0 0.0 255 0 0 255
1.03 1.03 1.03 0.0 0.0 0.0 255 0 0 255
0.97 0.97 -0.03 0.0 0.0 0.0 255 0 0 255
0.97 0.97 0.03 0.0 0.0 0.0 255 0 0 255
0.97 1.03 -0.03 0.0 0.0 0.0 255 0 0 255
0.97 1.03 0.03 0.0 0.0 0.0 255 0 0 255
1.03 0.97 -0.03 0.0 0.0 0.0 255 0 0 255
1.03 0.97 0.03 0.0 0.0 0.0 255 0 0 255
1.03 1.03 -0.03 0.0 0.0 0.0 255 0 0 255
1.03 1.03 0.03 0.0 0.0 0.0 255 0 0 255
3 0 0 0
3 0 1 2
3 2 1 3
3 0 2 6
3 0 6 4
3 3 1 5
3 3 5 7
3 2 3 7
3 2 7 6
3 5 4 6
3 5 6 7
3 1 0 4
3 1 4 5
3 0 0 0
3 8 8 8
3 8 9 10
3 10 9 11
3 8 10 14
3 8 14 12
3 11 9 13
3 11 13 15
3 10 11 15
3 10 15 14
3 13 12 14
3 13 14 15
3 9 8 12
3 9 12 13
3 8 8 8
3 16 16 16
3 16 17 18
3 18 17 19
3 16 18 22
3 16 22 20
3 19 17 21
3 19 21 23
3 18 19 23
3 18 23 22
3 21 20 22
3 21 22 23
3 17 16 20
3 17 20 21
3 16 16 16
3 24 24 24
3 24 25 26
3 26 25 27
3 24 26 30
3 24 30 28
3 27 25 29
3 27 29 31
3 26 27 31
3 26 31 30
3 29 28 30
3 29 30 31
3 25 24 28
3 25 28 29
3 24 24 24
3 32 32 32
3 32 33 34
3 34 33 35
3 32 34 38
3 32 38 36
3 35 33 37
3 35 37 39
3 34 35 39
3 34 39 38
3 37 36 38
3 37 38 39
3 33 32 36
3 33 36 37
3 32 32 32
3 40 40 40
3 40 41 42
3 42 41 43
3 40 42 46
3 40 46 44
3 43 41 45
3 43 45 47
3 42 43 47
3 42 47 46
3 45 44 46
3 45 46 47
3 41 40 44
3 41 44 45
3 40 40 40
3 48 48 48
3 48 49 50
3 50 49 51
3 48 50 54
3 48 54 52
3 51 49 53
3 51 53 55
3 50 51 55
3 50 55 54
3 53 52 54
3 53 54 55
3 49 48 52
3 49 52 53
3 48 48 48
3 56 56 56
3 56 57 58
3 58 57 59
3 56 58 62
3 56 62 60
3 59 57 61
3 59 61 63
3 58 59 63
3 58 63 62
3 61 60 62
3 61 62 63
3 57 56 60
3 57 60 61
3 56 56 56
